{
  "accessors": [
    {
      "bufferView": 2,
      "componentType": 5126,
      "count": 2,
      "max": [
        0.5424339771270752,
        1.1991679668426514,
        2.0990219116210938
      ],
      "min": [
        0.53263002634048462,
        1.1961090564727783,
        2.0849668979644775
      ],
      "type": "VEC3"
    },
    {
      "bufferView": 0,
      "componentType": 5125,
      "count": 2,
      "max": [
        1
      ],
      "min": [
        0
      ],
      "type": "SCALAR"
    },
    {
      "bufferView": 2,
      "byteOffset": 24,
      "componentType": 5126,
      "count": 65534,
      "max": [
        2.7998960018157959,
        1.5797159671783447,
        3.977402925491333
      ],
      "min": [
        -1.2699079513549805,
        -1.6784930229187012,
        0.10455799847841263
      ],
      "type": "VEC3"
    },
    {
      "bufferView": 2,
      "byteOffset": 786432,
      "componentType": 5126,
      "count": 65534,
      "max": [
        0.99999809265136719,
        0.99999594688415527,
        0.99962621927261353
      ],
      "min": [
        -0.99999940395355225,
        -0.99999916553497314,
        -0.99993753433227539
      ],
      "type": "VEC3"
    },
    {
      "bufferView": 3,
      "componentType": 5126,
      "count": 65534,
      "max": [
        0.99999499320983887,
        0.99946582317352295,
        0.99999964237213135,
        1
      ],
      "min": [
        -0.99982315301895142,
        -0.99975079298019409,
        -0.99878734350204468,
        -1
      ],
      "type": "VEC4"
    },
    {
      "bufferView": 1,
      "componentType": 5126,
      "count": 65534,
      "max": [
        0.99479997158050537,
        0.99839997291564941
      ],
      "min": [
        0.0038999998942017555,
        0.0052999998442828655
      ],
      "type": "VEC2"
    },
    {
      "bufferView": 0,
      "byteOffset": 8,
      "componentType": 5125,
      "count": 65544,
      "max": [
        65533
      ],
      "min": [
        0
      ],
      "type": "SCALAR"
    },
    {
      "bufferView": 2,
      "byteOffset": 1572840,
      "componentType": 5126,
      "count": 65532,
      "max": [
        2.656013011932373,
        1.4937429428100586,
        1.5351179838180542
      ],
      "min": [
        -1.2492059469223022,
        -1.6546750068664551,
        0.87526702880859375
      ],
      "type": "VEC3"
    },
    {
      "bufferView": 2,
      "byteOffset": 2359224,
      "componentType": 5126,
      "count": 65532,
      "max": [
        0.99999213218688965,
        0.99990975856781006,
        0.9978487491607666
      ],
      "min": [
        -0.99996352195739746,
        -0.99997758865356445,
        -0.99977201223373413
      ],
      "type": "VEC3"
    },
    {
      "bufferView": 3,
      "byteOffset": 1048544,
      "componentType": 5126,
      "count": 65532,
      "max": [
        0.99999994039535522,
        0.99984365701675415,
        0.99999886751174927,
        1
      ],
      "min": [
        -0.99984061717987061,
        -0.99936014413833618,
        -0.99999958276748657,
        -1
      ],
      "type": "VEC4"
    },
    {
      "bufferView": 1,
      "byteOffset": 524272,
      "componentType": 5126,
      "count": 65532,
      "max": [
        0.99199998378753662,
        0.99959999322891235
      ],
      "min": [
        0.019700000062584877,
        0.0040000001899898052
      ],
      "type": "VEC2"
    },
    {
      "bufferView": 0,
      "byteOffset": 262184,
      "componentType": 5125,
      "count": 65538,
      "max": [
        65531
      ],
      "min": [
        0
      ],
      "type": "SCALAR"
    },
    {
      "bufferView": 2,
      "byteOffset": 3145608,
      "componentType": 5126,
      "count": 65532,
      "max": [
        2.6115179061889648,
        1.4529789686203003,
        2.2007699012756348
      ],
      "min": [
        -1.1194820404052734,
        -1.6661649942398071,
        1.4178240299224854
      ],
      "type": "VEC3"
    },
    {
      "bufferView": 2,
      "byteOffset": 3931992,
      "componentType": 5126,
      "count": 65532,
      "max": [
        0.99999260902404785,
        0.99998593330383301,
        0.99999892711639404
      ],
      "min": [
        -0.99999463558197021,
        -0.99997925758361816,
        -0.99733507633209229
      ],
      "type": "VEC3"
    },
    {
      "bufferView": 3,
      "byteOffset": 2097056,
      "componentType": 5126,
      "count": 65532,
      "max": [
        0.99999666213989258,
        0.99989748001098633,
        0.99999982118606567,
        1
      ],
      "min": [
        -0.99993002414703369,
        -0.99992573261260986,
        -0.99997836351394653,
        -1
      ],
      "type": "VEC4"
    },
    {
      "bufferView": 1,
      "byteOffset": 1048528,
      "componentType": 5126,
      "count": 65532,
      "max": [
        0.99550002813339233,
        0.99910002946853638
      ],
      "min": [
        0.016200000420212746,
        0.0038999998942017555
      ],
      "type": "VEC2"
    },
    {
      "bufferView": 0,
      "byteOffset": 524336,
      "componentType": 5125,
      "count": 65544,
      "max": [
        65531
      ],
      "min": [
        0
      ],
      "type": "SCALAR"
    },
    {
      "bufferView": 2,
      "byteOffset": 4718376,
      "componentType": 5126,
      "count": 65532,
      "max": [
        2.6009819507598877,
        1.440498948097229,
        2.8400769233703613
      ],
      "min": [
        -1.1237330436706543,
        -1.6800880432128906,
        2.0765500068664551
      ],
      "type": "VEC3"
    },
    {
      "bufferView": 2,
      "byteOffset": 5504760,
      "componentType": 5126,
      "count": 65532,
      "max": [
        0.99999856948852539,
        0.99992728233337402,
        0.99855190515518188
      ],
      "min": [
        -0.99993443489074707,
        -0.99998950958251953,
        -0.99895143508911133
      ],
      "type": "VEC3"
    },
    {
      "bufferView": 3,
      "byteOffset": 3145568,
      "componentType": 5126,
      "count": 65532,
      "max": [
        0.99999946355819702,
        0.99987953901290894,
        0.99999958276748657,
        1
      ],
      "min": [
        -0.9999956488609314,
        -0.996238112449646,
        -0.99999558925628662,
        -1
      ],
      "type": "VEC4"
    },
    {
      "bufferView": 1,
      "byteOffset": 1572784,
      "componentType": 5126,
      "count": 65532,
      "max": [
        0.99419999122619629,
        0.99900001287460327
      ],
      "min": [
        0.018799999728798866,
        0.0049000000581145287
      ],
      "type": "VEC2"
    },
    {
      "bufferView": 0,
      "byteOffset": 786512,
      "componentType": 5125,
      "count": 65538,
      "max": [
        65531
      ],
      "min": [
        0
      ],
      "type": "SCALAR"
    },
    {
      "bufferView": 2,
      "byteOffset": 6291144,
      "componentType": 5126,
      "count": 65534,
      "max": [
        2.5994749069213867,
        1.4115869998931885,
        3.5304439067840576
      ],
      "min": [
        -1.1289219856262207,
        -1.6923749446868896,
        2.7214319705963135
      ],
      "type": "VEC3"
    },
    {
      "bufferView": 2,
      "byteOffset": 7077552,
      "componentType": 5126,
      "count": 65534,
      "max": [
        0.99998438358306885,
        0.99999773502349854,
        0.99931955337524414
      ],
      "min": [
        -0.99992859363555908,
        -0.99998974800109863,
        -0.99970036745071411
      ],
      "type": "VEC3"
    },
    {
      "bufferView": 3,
      "byteOffset": 4194080,
      "componentType": 5126,
      "count": 65534,
      "max": [
        0.99999397993087769,
        0.99611353874206543,
        0.99999934434890747,
        1
      ],
      "min": [
        -0.9998587965965271,
        -0.99715262651443481,
        -0.99999964237213135,
        -1
      ],
      "type": "VEC4"
    },
    {
      "bufferView": 1,
      "byteOffset": 2097040,
      "componentType": 5126,
      "count": 65534,
      "max": [
        0.99290001392364502,
        0.99959999322891235
      ],
      "min": [
        0.002899999963119626,
        0.006399999838322401
      ],
      "type": "VEC2"
    },
    {
      "bufferView": 0,
      "byteOffset": 1048664,
      "componentType": 5125,
      "count": 65538,
      "max": [
        65533
      ],
      "min": [
        0
      ],
      "type": "SCALAR"
    },
    {
      "bufferView": 2,
      "byteOffset": 7863960,
      "componentType": 5126,
      "count": 65533,
      "max": [
        2.7334809303283691,
        1.5433369874954224,
        3.917165994644165
      ],
      "min": [
        -1.3043129444122314,
        -1.7167270183563232,
        3.4336669445037842
      ],
      "type": "VEC3"
    },
    {
      "bufferView": 2,
      "byteOffset": 8650356,
      "componentType": 5126,
      "count": 65533,
      "max": [
        0.99999082088470459,
        0.9999614953994751,
        0.99952834844589233
      ],
      "min": [
        -0.99996554851531982,
        -0.99998509883880615,
        -0.99996542930603027
      ],
      "type": "VEC3"
    },
    {
      "bufferView": 3,
      "byteOffset": 5242624,
      "componentType": 5126,
      "count": 65533,
      "max": [
        0.99999469518661499,
        0.99994295835494995,
        0.99999696016311646,
        1
      ],
      "min": [
        -0.99999797344207764,
        -0.99900686740875244,
        -0.99993360042572021,
        -1
      ],
      "type": "VEC4"
    },
    {
      "bufferView": 1,
      "byteOffset": 2621312,
      "componentType": 5126,
      "count": 65533,
      "max": [
        0.99659997224807739,
        0.99980002641677856
      ],
      "min": [
        0.085900001227855682,
        0.010599999688565731
      ],
      "type": "VEC2"
    },
    {
      "bufferView": 0,
      "byteOffset": 1310816,
      "componentType": 5125,
      "count": 65541,
      "max": [
        65532
      ],
      "min": [
        0
      ],
      "type": "SCALAR"
    },
    {
      "bufferView": 2,
      "byteOffset": 9436752,
      "componentType": 5126,
      "count": 65534,
      "max": [
        2.7334470748901367,
        1.5538899898529053,
        4.0895881652832031
      ],
      "min": [
        -1.3267040252685547,
        -1.7164319753646851,
        3.8240230083465576
      ],
      "type": "VEC3"
    },
    {
      "bufferView": 2,
      "byteOffset": 10223160,
      "componentType": 5126,
      "count": 65534,
      "max": [
        0.99994730949401855,
        0.9997979998588562,
        1
      ],
      "min": [
        -0.99984675645828247,
        -0.9999769926071167,
        -0.99950474500656128
      ],
      "type": "VEC3"
    },
    {
      "bufferView": 3,
      "byteOffset": 6291152,
      "componentType": 5126,
      "count": 65534,
      "max": [
        0.99999642372131348,
        0.99910628795623779,
        0.99999922513961792,
        1
      ],
      "min": [
        -0.99466782808303833,
        -0.99992728233337402,
        -0.9999687671661377,
        -1
      ],
      "type": "VEC4"
    },
    {
      "bufferView": 1,
      "byteOffset": 3145576,
      "componentType": 5126,
      "count": 65534,
      "max": [
        0.98989999294281006,
        0.99809998273849487
      ],
      "min": [
        0.0031999999191612005,
        0.013100000098347664
      ],
      "type": "VEC2"
    },
    {
      "bufferView": 0,
      "byteOffset": 1572980,
      "componentType": 5125,
      "count": 65538,
      "max": [
        65533
      ],
      "min": [
        0
      ],
      "type": "SCALAR"
    },
    {
      "bufferView": 2,
      "byteOffset": 11009568,
      "componentType": 5126,
      "count": 28815,
      "max": [
        2.3965909481048584,
        1.5432159900665283,
        4.101600170135498
      ],
      "min": [
        -1.326045036315918,
        -1.4575749635696411,
        0.19430699944496155
      ],
      "type": "VEC3"
    },
    {
      "bufferView": 2,
      "byteOffset": 11355348,
      "componentType": 5126,
      "count": 28815,
      "max": [
        0.99782854318618774,
        0.99928545951843262,
        0.99999988079071045
      ],
      "min": [
        -0.99566525220870972,
        -0.97485721111297607,
        -0.98659008741378784
      ],
      "type": "VEC3"
    },
    {
      "bufferView": 3,
      "byteOffset": 7339696,
      "componentType": 5126,
      "count": 28815,
      "max": [
        0.99963521957397461,
        0.98638153076171875,
        0.99984174966812134,
        1
      ],
      "min": [
        -0.98864114284515381,
        -0.99988049268722534,
        -0.97458481788635254,
        -1
      ],
      "type": "VEC4"
    },
    {
      "bufferView": 1,
      "byteOffset": 3669848,
      "componentType": 5126,
      "count": 28815,
      "max": [
        0.92879998683929443,
        0.99650001525878906
      ],
      "min": [
        0.004999999888241291,
        0.0040000001899898052
      ],
      "type": "VEC2"
    },
    {
      "bufferView": 0,
      "byteOffset": 1835132,
      "componentType": 5125,
      "count": 28821,
      "max": [
        28814
      ],
      "min": [
        0
      ],
      "type": "SCALAR"
    },
    {
      "bufferView": 2,
      "byteOffset": 11701128,
      "componentType": 5126,
      "count": 1635,
      "max": [
        2.173414945602417,
        1.4917290210723877,
        4.0174698829650879
      ],
      "min": [
        2.0603570938110352,
        1.4738689661026001,
        3.9325170516967773
      ],
      "type": "VEC3"
    },
    {
      "bufferView": 2,
      "byteOffset": 11720748,
      "componentType": 5126,
      "count": 1635,
      "max": [
        0.9994044303894043,
        0.99876517057418823,
        0.997947096824646
      ],
      "min": [
        -0.99959009885787964,
        -0.9987531304359436,
        -0.99989151954650879
      ],
      "type": "VEC3"
    },
    {
      "bufferView": 0,
      "byteOffset": 1950416,
      "componentType": 5125,
      "count": 7596,
      "max": [
        1634
      ],
      "min": [
        0
      ],
      "type": "SCALAR"
    }
  ],
  "asset": {
    "generator": "Sketchfab (OSG glTF plugin)",
    "version": "2.0"
  },
  "bufferViews": [
    {
      "buffer": 0,
      "byteLength": 1980800,
      "byteOffset": 0,
      "name": "floatBufferViews",
      "target": 34963
    },
    {
      "buffer": 0,
      "byteLength": 3900368,
      "byteOffset": 1980800,
      "byteStride": 8,
      "name": "floatBufferViews",
      "target": 34962
    },
    {
      "buffer": 0,
      "byteLength": 11740368,
      "byteOffset": 5881168,
      "byteStride": 12,
      "name": "floatBufferViews",
      "target": 34962
    },
    {
      "buffer": 0,
      "byteLength": 7800736,
      "byteOffset": 17621536,
      "byteStride": 16,
      "name": "floatBufferViews",
      "target": 34962
    }
  ],
  "buffers": [
    {
      "byteLength": 25422272,
      "uri": "scene.bin"
    }
  ],
  "images": [
    {
      "uri": "textures/1st_baseColor.jpeg"
    }
  ],
  "materials": [
    {
      "doubleSided": true,
      "emissiveFactor": [
        0,
        0,
        0
      ],
      "name": "1st",
      "pbrMetallicRoughness": {
        "baseColorFactor": [
          1,
          1,
          1,
          1
        ],
        "baseColorTexture": {
          "index": 0,
          "texCoord": 0
        },
        "metallicFactor": 0,
        "roughnessFactor": 1
      }
    },
    {
      "doubleSided": true,
      "emissiveFactor": [
        0,
        0,
        0
      ],
      "name": "None",
      "pbrMetallicRoughness": {
        "baseColorFactor": [
          0.80000000000000004,
          0.80000000000000004,
          0.80000000000000004,
          1
        ],
        "metallicFactor": 0,
        "roughnessFactor": 1
      }
    }
  ],
  "meshes": [
    {
      "primitives": [
        {
          "attributes": {
            "POSITION": 0
          },
          "indices": 1,
          "material": 0,
          "mode": 1
        }
      ]
    },
    {
      "primitives": [
        {
          "attributes": {
            "NORMAL": 3,
            "POSITION": 2,
            "TANGENT": 4,
            "TEXCOORD_0": 5
          },
          "indices": 6,
          "material": 0,
          "mode": 4
        }
      ]
    },
    {
      "primitives": [
        {
          "attributes": {
            "NORMAL": 8,
            "POSITION": 7,
            "TANGENT": 9,
            "TEXCOORD_0": 10
          },
          "indices": 11,
          "material": 0,
          "mode": 4
        }
      ]
    },
    {
      "primitives": [
        {
          "attributes": {
            "NORMAL": 13,
            "POSITION": 12,
            "TANGENT": 14,
            "TEXCOORD_0": 15
          },
          "indices": 16,
          "material": 0,
          "mode": 4
        }
      ]
    },
    {
      "primitives": [
        {
          "attributes": {
            "NORMAL": 18,
            "POSITION": 17,
            "TANGENT": 19,
            "TEXCOORD_0": 20
          },
          "indices": 21,
          "material": 0,
          "mode": 4
        }
      ]
    },
    {
      "primitives": [
        {
          "attributes": {
            "NORMAL": 23,
            "POSITION": 22,
            "TANGENT": 24,
            "TEXCOORD_0": 25
          },
          "indices": 26,
          "material": 0,
          "mode": 4
        }
      ]
    },
    {
      "primitives": [
        {
          "attributes": {
            "NORMAL": 28,
            "POSITION": 27,
            "TANGENT": 29,
            "TEXCOORD_0": 30
          },
          "indices": 31,
          "material": 0,
          "mode": 4
        }
      ]
    },
    {
      "primitives": [
        {
          "attributes": {
            "NORMAL": 33,
            "POSITION": 32,
            "TANGENT": 34,
            "TEXCOORD_0": 35
          },
          "indices": 36,
          "material": 0,
          "mode": 4
        }
      ]
    },
    {
      "primitives": [
        {
          "attributes": {
            "NORMAL": 38,
            "POSITION": 37,
            "TANGENT": 39,
            "TEXCOORD_0": 40
          },
          "indices": 41,
          "material": 0,
          "mode": 4
        }
      ]
    },
    {
      "primitives": [
        {
          "attributes": {
            "NORMAL": 43,
            "POSITION": 42
          },
          "indices": 44,
          "material": 1,
          "mode": 4
        }
      ]
    }
  ],
  "nodes": [
    {
      "children": [
        1
      ],
      "name": "RootNode (gltf orientation matrix)",
      "rotation": [
        -0.70710678118654746,
        -0,
        -0,
        0.70710678118654757
      ]
    },
    {
      "children": [
        2
      ],
      "matrix": [
        0.99884408712387085,
        0,
        -0.048068147152662277,
        0,
        0,
        1,
        0,
        0,
        0.048068147152662277,
        0,
        0.99884408712387085,
        0,
        -0.10014745593070984,
        0,
        0.038505636155605316,
        1
      ],
      "name": "RootNode (model correction matrix)"
    },
    {
      "children": [
        3
      ],
      "name": "bedside table.obj.cleaner.materialmerger.gles"
    },
    {
      "children": [
        4,
        5,
        6,
        7,
        8,
        9,
        10,
        11,
        12,
        13
      ],
      "name": "Geode"
    },
    {
      "mesh": 0,
      "name": ""
    },
    {
      "mesh": 1,
      "name": ""
    },
    {
      "mesh": 2,
      "name": ""
    },
    {
      "mesh": 3,
      "name": ""
    },
    {
      "mesh": 4,
      "name": ""
    },
    {
      "mesh": 5,
      "name": ""
    },
    {
      "mesh": 6,
      "name": ""
    },
    {
      "mesh": 7,
      "name": ""
    },
    {
      "mesh": 8,
      "name": ""
    },
    {
      "mesh": 9,
      "name": ""
    }
  ],
  "samplers": [
    {
      "magFilter": 9729,
      "minFilter": 9987,
      "wrapS": 10497,
      "wrapT": 10497
    }
  ],
  "scene": 0,
  "scenes": [
    {
      "name": "OSG_Scene",
      "nodes": [
        0
      ]
    }
  ],
  "textures": [
    {
      "sampler": 0,
      "source": 0
    }
  ]
}

