{
  "accessors": [
    {
      "bufferView": 2,
      "componentType": 5126,
      "count": 2271,
      "max": [
        4.3765997886657715,
        34.291301727294922,
        15.063400268554688
      ],
      "min": [
        -3.3269000053405762,
        -3.2955000400543213,
        -10.982000350952148
      ],
      "type": "VEC3"
    },
    {
      "bufferView": 2,
      "byteOffset": 27252,
      "componentType": 5126,
      "count": 2271,
      "max": [
        0.99998313188552856,
        1,
        0.9999992847442627
      ],
      "min": [
        -0.99998360872268677,
        -1,
        -1
      ],
      "type": "VEC3"
    },
    {
      "bufferView": 3,
      "componentType": 5126,
      "count": 2271,
      "max": [
        1,
        0.99999594688415527,
        0.9999539852142334,
        1
      ],
      "min": [
        -0.99999880790710449,
        -0.99516147375106812,
        -0.9999852180480957,
        -1
      ],
      "type": "VEC4"
    },
    {
      "bufferView": 1,
      "componentType": 5126,
      "count": 2271,
      "max": [
        0.99949997663497925,
        0.99860000610351562
      ],
      "min": [
        0.00050000002374872565,
        0.00050000002374872565
      ],
      "type": "VEC2"
    },
    {
      "bufferView": 0,
      "componentType": 5125,
      "count": 8610,
      "max": [
        2270
      ],
      "min": [
        0
      ],
      "type": "SCALAR"
    }
  ],
  "asset": {
    "extras": {
      "author": "IdiWork (https://sketchfab.com/idiwork)",
      "license": "CC-BY-SA-4.0 (http://creativecommons.org/licenses/by-sa/4.0/)",
      "source": "https://sketchfab.com/models/65131ad42bb6465ab5dd9256254b2ade",
      "title": "Stylized Tri-Revolver"
    },
    "generator": "Sketchfab-3.22.13",
    "version": "2.0"
  },
  "bufferViews": [
    {
      "buffer": 0,
      "byteLength": 34440,
      "byteOffset": 0,
      "name": "floatBufferViews",
      "target": 34963
    },
    {
      "buffer": 0,
      "byteLength": 18168,
      "byteOffset": 34440,
      "byteStride": 8,
      "name": "floatBufferViews",
      "target": 34962
    },
    {
      "buffer": 0,
      "byteLength": 54504,
      "byteOffset": 52608,
      "byteStride": 12,
      "name": "floatBufferViews",
      "target": 34962
    },
    {
      "buffer": 0,
      "byteLength": 36336,
      "byteOffset": 107112,
      "byteStride": 16,
      "name": "floatBufferViews",
      "target": 34962
    }
  ],
  "buffers": [
    {
      "byteLength": 143448,
      "uri": "scene.bin"
    }
  ],
  "images": [
    {
      "uri": "textures/M_Tri-Revolver_baseColor.png"
    },
    {
      "uri": "textures/M_Tri-Revolver_normal.png"
    },
    {
      "uri": "textures/M_Tri-Revolver_metallicRoughness.png"
    }
  ],
  "materials": [
    {
      "doubleSided": false,
      "name": "M_Tri-Revolver",
      "normalTexture": {
        "index": 1,
        "scale": 0.3530208588,
        "texCoord": 0
      },
      "occlusionTexture": {
        "index": 2,
        "strength": 0.71552085880000005,
        "texCoord": 0
      },
      "pbrMetallicRoughness": {
        "baseColorFactor": [
          1,
          1,
          1,
          1
        ],
        "baseColorTexture": {
          "index": 0,
          "texCoord": 0
        },
        "metallicFactor": 0.92000000000000004,
        "metallicRoughnessTexture": {
          "index": 2,
          "texCoord": 0
        },
        "roughnessFactor": 1
      }
    }
  ],
  "meshes": [
    {
      "name": "Tri-Revolver_M_Tri-Revolver_0",
      "primitives": [
        {
          "attributes": {
            "NORMAL": 1,
            "POSITION": 0,
            "TANGENT": 2,
            "TEXCOORD_0": 3
          },
          "indices": 4,
          "material": 0,
          "mode": 4
        }
      ]
    }
  ],
  "nodes": [
    {
      "children": [
        1
      ],
      "name": "RootNode (gltf orientation matrix)",
      "rotation": [
        -0.70710678118654746,
        -0,
        -0,
        0.70710678118654757
      ]
    },
    {
      "children": [
        2
      ],
      "name": "RootNode (model correction matrix)"
    },
    {
      "children": [
        3
      ],
      "matrix": [
        1,
        0,
        0,
        0,
        0,
        0,
        1,
        0,
        0,
        -1,
        0,
        0,
        0,
        0,
        0,
        1
      ],
      "name": "fd60f2b6f753415cbb3d08083dc5baf3.fbx"
    },
    {
      "children": [
        4
      ],
      "name": "RootNode"
    },
    {
      "children": [
        5
      ],
      "matrix": [
        2.3368165493011475,
        0,
        0,
        0,
        0,
        5.1887750747184823e-16,
        -2.3368165493011475,
        0,
        0,
        2.3368165493011475,
        5.1887750747184823e-16,
        0,
        0,
        0,
        0,
        1
      ],
      "name": "Tri-Revolver"
    },
    {
      "mesh": 0,
      "name": "Tri-Revolver_M_Tri-Revolver_0"
    }
  ],
  "samplers": [
    {
      "magFilter": 9729,
      "minFilter": 9987,
      "wrapS": 10497,
      "wrapT": 10497
    }
  ],
  "scene": 0,
  "scenes": [
    {
      "name": "OSG_Scene",
      "nodes": [
        0
      ]
    }
  ],
  "textures": [
    {
      "sampler": 0,
      "source": 0
    },
    {
      "sampler": 0,
      "source": 1
    },
    {
      "sampler": 0,
      "source": 2
    }
  ]
}

